{"title":"The Grey - 2012 BDRIP 720P","uid":7308331,"size":954212093,"categoryP":"video","categoryS":"hd___movies","magnet":"?xt=urn:btih:4d74988f3a85fc0c74f76e5b4471fb297af89e21&amp;dn=The+Grey+-+2012+BDRIP+720P&amp;tr=udp%3A%2F%2Ftracker.openbittorrent.com%3A80&amp;tr=udp%3A%2F%2Fopen.demonii.com%3A1337&amp;tr=udp%3A%2F%2Ftracker.coppersurfer.tk%3A6969&amp;tr=udp%3A%2F%2Fexodus.desync.com%3A6969","seeders":0,"leechers":1,"uploader":"ster9","files":3,"time":1338268408,"description":"[img]http://www.shotpix.com/images/29274810157010578388.jpg[/img]\n\nLanguage : English\nSUBS  : English\n         VIDEO :\n\n      Format : MP4 | AVC\n      Format/Info : Advanced Video Codec\n      Format profile : &lt;a class=&quot;__cf_email__&quot; href=&quot;/cdn-cgi/l/email-protection&quot; data-cfemail=&quot;f2ba9b959ab2bec6dcc2&quot;&gt;[email&amp;#160;protected]&lt;/a&gt;&lt;script cf-hash='f9e31' type=&quot;text/javascript&quot;&gt;\n/* &lt;![CDATA[ */!function(){try{var t=&quot;currentScript&quot;in document?document.currentScript:function(){for(var t=document.getElementsByTagName(&quot;script&quot;),e=t.length;e--;)if(t[e].getAttribute(&quot;cf-hash&quot;))return t[e]}();if(t&amp;&amp;t.previousSibling){var e,r,n,i,c=t.previousSibling,a=c.getAttribute(&quot;data-cfemail&quot;);if(a){for(e=&quot;&quot;,r=parseInt(a.substr(0,2),16),n=2;a.length-n;n+=2)i=parseInt(a.substr(n,2),16)^r,e+=String.fromCharCode(i);e=document.createTextNode(e),c.parentNode.replaceChild(e,c)}}}catch(u){}}();/* ]]&gt; */&lt;/script&gt;\n      Format settings, ReFrames : 3 frames\n      Codec ID : avc1\n      Codec ID/Info : Advanced Video Coding\n      Duration : 1h 57mn\n      Bit rate : 900 Kbps\n      Width : 1 920 pixels\n      Height : 800 pixels\n      Display aspect ratio : 2.40:1\n      Frame rate mode : Constant\n      Frame rate : 23.976 fps\n      Chroma subsampling : 4:2:0\n      Bit depth : 8 bits\n      Scan type : Progressive\n      Bits/(Pixel*Frame) : 0.024\n      Stream size : 743 MiB (82%)\n\n        \n       AUDIO :\n\n      Format : AAC\n      Format/Info : Advanced Audio Codec\n      Format profile : LC\n      Codec ID : 40\n      Duration : 1h 57mn\n      Bit rate mode : Variable\n      Bit rate : 192 Kbps\n      Channel(s) : 6 channels\n      Channel positions : Front: L C R, Side: L R, LFE\n      Sampling rate : 48.0 KHz\n      Compression mode : Lossy\n      Stream size : 162 MiB (18%)\n      Language : English\n\n\n[img]http://img194.imageshack.us/img194/5130/vlcsnap2012052819h04m08.png[/img]\n[img]http://img801.imageshack.us/img801/6241/vlcsnap2012052819h09m36.png[/img]\n[img]http://img804.imageshack.us/img804/6062/thegrey2012snapshotster.png[/img][img][/img]","torrent":{"xt":"urn:btih:4d74988f3a85fc0c74f76e5b4471fb297af89e21","amp;dn":"The+Grey+-+2012+BDRIP+720P","amp;tr":["udp%3A%2F%2Ftracker.openbittorrent.com%3A80","udp%3A%2F%2Fopen.demonii.com%3A1337","udp%3A%2F%2Ftracker.coppersurfer.tk%3A6969","udp%3A%2F%2Fexodus.desync.com%3A6969"],"infoHash":"4d74988f3a85fc0c74f76e5b4471fb297af89e21","infoHashBuffer":{"type":"Buffer","data":[77,116,152,143,58,133,252,12,116,247,110,91,68,113,251,41,122,248,158,33]},"announce":[],"urlList":[]}}